<?xml version="1.0" encoding="UTF-8"?><svg id="b" xmlns="http://www.w3.org/2000/svg" viewBox="0 0 283.46 186.14"><defs><style>.d{fill:#ee3d33;}.d,.e,.f{stroke-width:0px;}.e{fill:#000;}.f{fill:#f2f2f2;}</style></defs><g id="c"><rect class="d" width="283.46" height="186.14" rx="9.14" ry="9.14"/><path class="f" d="M129.01,23.63v-14.23h10.4v40.63h-10.4v-16.04h-15.12v16.04h-10.48V9.4h10.48v14.23h15.12Z"/><path class="f" d="M158.28,50.03h-10.38V9.4h10.38v40.63Z"/><path class="f" d="M180.22,50.03h-10.61v-8.45h10.61v8.45ZM177.42,38.8h-4.95l-2.8-18.67v-10.73h10.49v10.73l-2.74,18.67Z"/><path class="f" d="M60.51,68.02l2.67-9.92h7.92v20.95h-5.31v-8.33l.43-7.71-1.37,5.77-2.83,10.27h-4.84l-2.86-10.36-1.33-5.65.44,7.68v8.33h-5.4v-20.95h7.85l2.73,9.92.93,4.27.96-4.27Z"/><path class="f" d="M85.22,64.14l3.17-6.03h6.33l-7.7,13.07v7.89h-5.81v-7.89l-7.73-13.07h6.46l3.07,6.03,1.09,2.65,1.12-2.65Z"/><path class="f" d="M118.56,70.29v-12.18h5.71v20.95h-5.81l-7.67-12.12v12.12h-5.74v-20.95h5.74l7.76,12.18Z"/><path class="f" d="M148.98,79.06h-6.12l-1.24-3.59h-7.45l-1.24,3.59h-6.08l8.07-20.95h6.12l7.95,20.95ZM136.56,68.58l-.99,2.85h4.69l-.99-2.85-1.37-4.39-1.33,4.39Z"/><path class="f" d="M163.01,68.02l2.67-9.92h7.92v20.95h-5.31v-8.33l.43-7.71-1.37,5.77-2.83,10.27h-4.84l-2.86-10.36-1.33-5.65.43,7.68v8.33h-5.4v-20.95h7.85l2.73,9.92.93,4.27.96-4.27Z"/><path class="f" d="M184.28,70.58v3.83h11.98v4.65h-17.79v-20.95h17.48v4.56h-11.67v3.44h10.24v4.47h-10.24Z"/><path class="f" d="M213.18,79.06h-5.81v-20.95h5.81v20.95Z"/><path class="f" d="M226.03,79.74c-2.96,0-5.29-.64-6.99-1.93-1.7-1.29-2.61-3.11-2.73-5.49h5.74c.14,2,1.51,3,4.1,3,2.26,0,3.38-.7,3.38-2.09,0-.55-.2-.98-.61-1.28-.4-.3-1.08-.57-2.03-.81l-4.35-.97c-3.81-.84-5.71-2.83-5.71-5.97,0-1.92.73-3.5,2.2-4.74s3.66-1.85,6.58-1.85,4.98.58,6.55,1.75c1.57,1.17,2.42,2.82,2.55,4.96h-5.62c-.25-1.65-1.42-2.47-3.51-2.47-.91,0-1.63.17-2.16.52-.53.34-.79.8-.79,1.37,0,.88.7,1.49,2.11,1.82l4.53,1c4.1.92,6.15,3.02,6.15,6.3,0,2.16-.84,3.85-2.51,5.06-1.68,1.22-3.97,1.82-6.89,1.82Z"/><rect class="f" x="7.1" y="92.81" width="269.26" height="85.75"/><path class="e" d="M91.46,154.6l-12.17.92-8.42.71-4.39.35c-.38,0-.72-.24-1.03-.71-.31-.47-.46-.92-.46-1.34,0-.33.11-.58.32-.74.21-.17.45-.28.71-.35.26-.07.44-.13.53-.18.05-2.55.07-8.49.07-17.83,0-6.89-.27-12.23-.81-16.03-.54-3.8-.81-5.84-.81-6.12,0-.66.25-1.18.74-1.56.5-.38,1-.57,1.52-.57.33,0,.59.13.78.39.19.26.33.67.42,1.24.47,1.6.84,4.55,1.1,8.84.26,4.29.39,8.77.39,13.44,0,3.96-.02,7.64-.07,11.04-.05,3.4-.07,5.68-.07,6.86.61-.05,1.79-.13,3.54-.25,1.74-.12,3.54-.25,5.38-.39,2.73-.33,5.82-.83,9.27-1.49,2.78-.52,4.46-.78,5.02-.78.52,0,.85.24.99.71.14.47.21,1.04.21,1.7,0,.61-.27,1.11-.81,1.49-.54.38-1.19.59-1.95.64Z"/><path class="e" d="M135.75,114.06c-1.27.71-3.27,1.46-5.98,2.26-2.71.8-4.94,1.37-6.69,1.7-2.74.52-5.48.93-8.24,1.24s-4.54.48-5.34.53c.05,2.74.12,5.55.21,8.46.09,2.9.17,4.89.21,5.98,1.84-.24,4.6-.68,8.28-1.34l2.69-.42c2.97-.52,5.26-1.46,6.86-2.83.85-.66,1.46-.99,1.84-.99.33,0,.6.18.81.53s.32.72.32,1.1c0,.85-.96,1.78-2.87,2.79-1.91,1.01-4.02,1.76-6.33,2.23-1.93.42-4.1.83-6.51,1.2-2.41.38-3.99.61-4.74.71.28,8.07,1.11,14.06,2.48,17.97,1.37.47,2.71.81,4.03,1.03,1.32.21,3.02.32,5.09.32s4.06-.27,5.94-.81c1.89-.54,3.41-1.21,4.56-2.02,1.16-.8,1.73-1.56,1.73-2.26,0-.38-.07-.74-.21-1.1-.14-.35-.33-.72-.57-1.1-.1-.14-.25-.36-.46-.67-.21-.31-.32-.55-.32-.74,0-.47.52-.71,1.56-.71.75,0,1.4.32,1.95.96.54.64.81,1.33.81,2.09,0,1.51-.67,3-2.02,4.46-1.34,1.46-3.18,2.65-5.52,3.57-2.33.92-4.92,1.38-7.75,1.38s-5.24-.15-7.08-.46c-1.84-.31-3.23-.91-4.17-1.8-1.13-1.27-1.92-3.49-2.37-6.65-.45-3.16-.84-7.38-1.17-12.66-.9.24-1.9.44-3.01.6-1.11.17-1.95.25-2.51.25s-1.03-.18-1.38-.53c-.35-.35-.53-.79-.53-1.31,0-.33.06-.61.18-.85.12-.24.29-.38.53-.42,1.56-.19,2.69-.31,3.4-.35l3.04-.35c-.19-6.08-.38-11.04-.57-14.86-.71,0-1.27.02-1.7.07l-3.25.07c-.42,0-.76-.12-.99-.35-.24-.24-.35-.5-.35-.78,0-1.13.75-1.89,2.26-2.26.57-.09,1.28-.2,2.16-.32.87-.12,1.45-.18,1.73-.18.9-.99,1.89-1.49,2.97-1.49.19,0,.34.15.46.46.12.31.18.53.18.67,3.11-.14,6.81-.5,11.11-1.06,2.83-.38,7.19-1.27,13.09-2.69l2.62-.57c.47,0,.71.28.71.85s-.4,1.06-1.2,1.49Z"/><path class="e" d="M157.69,157.5c-2.55,0-4.95-.53-7.22-1.59-2.26-1.06-4.1-2.63-5.52-4.71-1.42-2.08-2.12-4.58-2.12-7.5,0-5,1.3-10.18,3.89-15.53,2.59-5.35,6.2-10.39,10.83-15.11.47-.42.92-.71,1.34-.85s.92-.21,1.49-.21c.47,0,.93.12,1.38.35.45.24.67.52.67.85,0,.19-.08.46-.25.81-.17.35-.27.58-.32.67.28,0,.62-.04,1.03-.11.4-.07,1.19-.11,2.37-.11,1.37,0,3.22.22,5.55.67s4.04.91,5.13,1.38c3.07,1.37,5.4,3.13,7,5.27,1.6,2.15,2.41,4.45,2.41,6.9,0,4.86-1.37,9.5-4.1,13.94-2.74,4.43-6.25,8.02-10.54,10.75-4.29,2.74-8.63,4.1-13.02,4.1ZM174.74,119.22c-1.37-.61-3.09-.92-5.17-.92-.66,0-1.56.05-2.69.14l-2.62.07c-2.26,0-3.4-.47-3.4-1.42,0-.33.02-.64.07-.92.05-.28.09-.47.14-.57-.99,0-1.79.28-2.41.85-3.87,4.01-6.85,8.28-8.95,12.81-2.1,4.53-3.15,8.94-3.15,13.23,0,4.01,1,6.92,3.01,8.74,2,1.82,4.75,2.72,8.24,2.72,3.96,0,7.84-1.13,11.64-3.4,3.8-2.26,6.89-5.24,9.27-8.92,2.38-3.68,3.57-7.5,3.57-11.46,0-2.74-.64-4.96-1.91-6.69s-3.16-3.15-5.66-4.28Z"/><path class="e" d="M227.8,158.06c-.33,0-2.54-2.53-6.62-7.61-4.08-5.07-7.44-9.4-10.08-12.98-.38-.52-1.58-2.24-3.61-5.17-2.97-4.34-4.81-6.96-5.52-7.85l-.14,5.45-.07,5.31c0,3.35-.04,6.98-.11,10.9-.07,3.92-.15,7.03-.25,9.34-.05.57-.29,1.08-.74,1.56s-.91.71-1.38.71c-.52,0-.88-.15-1.1-.46-.21-.31-.32-.91-.32-1.8,0-.57.09-2.31.28-5.24.42-5.42.64-9.98.64-13.65,0-2.92.05-5.7.14-8.31.09-2.62.14-4.23.14-4.85l.07-2.05v-.21c0-.52.08-.93.25-1.24.17-.31.51-.46,1.03-.46h.35c.52,0,1.54.93,3.08,2.79,1.53,1.86,3.48,4.4,5.84,7.61.52.66,1.01,1.31,1.49,1.95.47.64.92,1.24,1.34,1.8,2.69,3.44,4.1,5.26,4.25,5.45,6.7,8.54,10.35,13.4,10.97,14.58-.09-.38-.26-1.25-.5-2.62-.24-1.37-.46-3.16-.67-5.38-.21-2.22-.32-4.5-.32-6.86,0-4.2-.4-9.74-1.2-16.63-.24-2.26-.35-3.66-.35-4.17,0-1.79,1.01-2.69,3.04-2.69.47,0,.82.48,1.06,1.45.24.97.4,3.01.5,6.12.09,3.11.14,8.09.14,14.93,0,2.17.08,4.29.25,6.37.17,2.08.32,3.92.46,5.52.24,2.22.35,3.89.35,5.02l.07,2.55c0,.57-.92.85-2.76.85Z"/></g></svg>