<?xml version="1.0" encoding="UTF-8"?><svg id="b" xmlns="http://www.w3.org/2000/svg" viewBox="0 0 283.46 186.14"><defs><style>.d{fill:#ee3d33;}.d,.e{stroke-width:0px;}.e{fill:#f2f2f2;}.f{fill:#000;font-family:HelveticaNowText-ExtraBold, 'Helvetica Now Text ';font-size:70.75px;font-weight:700;}</style></defs><g id="c"><rect class="d" width="283.46" height="186.14" rx="9.14" ry="9.14"/><path class="e" d="M129.01,23.63v-14.23h10.4v40.63h-10.4v-16.04h-15.12v16.04h-10.48V9.4h10.48v14.23h15.12Z"/><path class="e" d="M158.28,50.03h-10.38V9.4h10.38v40.63Z"/><path class="e" d="M180.22,50.03h-10.61v-8.45h10.61v8.45ZM177.42,38.8h-4.95l-2.8-18.67v-10.73h10.49v10.73l-2.74,18.67Z"/><path class="e" d="M60.51,68.02l2.67-9.92h7.92v20.95h-5.31v-8.33l.43-7.71-1.37,5.77-2.83,10.27h-4.84l-2.86-10.36-1.33-5.65.44,7.68v8.33h-5.4v-20.95h7.85l2.73,9.92.93,4.27.96-4.27Z"/><path class="e" d="M85.22,64.14l3.17-6.03h6.33l-7.7,13.07v7.89h-5.81v-7.89l-7.73-13.07h6.46l3.07,6.03,1.09,2.65,1.12-2.65Z"/><path class="e" d="M118.56,70.29v-12.18h5.71v20.95h-5.81l-7.67-12.12v12.12h-5.74v-20.95h5.74l7.76,12.18Z"/><path class="e" d="M148.98,79.06h-6.12l-1.24-3.59h-7.45l-1.24,3.59h-6.08l8.07-20.95h6.12l7.95,20.95ZM136.56,68.58l-.99,2.85h4.69l-.99-2.85-1.37-4.39-1.33,4.39Z"/><path class="e" d="M163.01,68.02l2.67-9.92h7.92v20.95h-5.31v-8.33l.43-7.71-1.37,5.77-2.83,10.27h-4.84l-2.86-10.36-1.33-5.65.43,7.68v8.33h-5.4v-20.95h7.85l2.73,9.92.93,4.27.96-4.27Z"/><path class="e" d="M184.28,70.58v3.83h11.98v4.65h-17.79v-20.95h17.48v4.56h-11.67v3.44h10.24v4.47h-10.24Z"/><path class="e" d="M213.18,79.06h-5.81v-20.95h5.81v20.95Z"/><path class="e" d="M226.03,79.74c-2.96,0-5.29-.64-6.99-1.93-1.7-1.29-2.61-3.11-2.73-5.49h5.74c.14,2,1.51,3,4.1,3,2.26,0,3.38-.7,3.38-2.09,0-.55-.2-.98-.61-1.28-.4-.3-1.08-.57-2.03-.81l-4.35-.97c-3.81-.84-5.71-2.83-5.71-5.97,0-1.92.73-3.5,2.2-4.74s3.66-1.85,6.58-1.85,4.98.58,6.55,1.75c1.57,1.17,2.42,2.82,2.55,4.96h-5.62c-.25-1.65-1.42-2.47-3.51-2.47-.91,0-1.63.17-2.16.52-.53.34-.79.8-.79,1.37,0,.88.7,1.49,2.11,1.82l4.53,1c4.1.92,6.15,3.02,6.15,6.3,0,2.16-.84,3.85-2.51,5.06-1.68,1.22-3.97,1.82-6.89,1.82Z"/><rect class="e" x="7.1" y="92.81" width="269.26" height="85.75"/><text class="f" transform="translate(56.02 157.71)"><tspan x="0" y="0">Leon</tspan></text></g></svg>